<svg xmlns="http://www.w3.org/2000/svg" width="260" height="40.046"><defs><style>.a{fill:#fa4b29}.b{fill:#fa9f29}.c{opacity:.2}.d{fill:#1c2951}</style></defs><path class="a" d="M13.326 31.351a12.621 12.621 0 015.846-6.665l4.6 2.66c1.841 1.059 1.464 3.977-.184 4.934l-9.39 5.441a1.1 1.1 0 01-1.62-.856 12.96 12.96 0 01.748-5.514z"/><path class="b" d="M27.976 18.909a4.824 4.824 0 00-2.154-4L-.001.009a24.985 24.985 0 0012.226 20.686l11.525 6.674c1.832 1.059 1.464 4.014-.184 4.934l2.89-1.675a2.964 2.964 0 001.473-2.569v-3.4c-.003-.06.047-5.75.047-5.75z"/><path class="c" d="M23.749 27.359l-4.6-2.662a55.28 55.28 0 014.049 3.783c1.074 1.232.363 3.813.363 3.813 1.652-.92 2.021-3.875.188-4.934z"/><path class="a" d="M44.257 8.695a12.622 12.622 0 01-5.846 6.665l-4.6-2.66c-1.841-1.059-1.464-3.977.184-4.934l9.39-5.441a1.105 1.105 0 011.62.856 12.971 12.971 0 01-.748 5.514z"/><path class="b" d="M29.608 21.137a4.823 4.823 0 002.154 4l25.822 14.9a24.983 24.983 0 00-12.225-20.686l-11.526-6.674c-1.832-1.059-1.464-4.014.184-4.934l-2.89 1.676a2.963 2.963 0 00-1.473 2.568v3.4c.004.061-.046 5.75-.046 5.75z"/><path class="c" d="M33.836 12.691l4.6 2.662a55.333 55.333 0 01-4.049-3.783c-1.074-1.232-.363-3.813-.363-3.813-1.653.917-2.021 3.872-.188 4.934z"/><path class="d" d="M59.394 19.66a20.467 20.467 0 011.29-7.067 19.012 19.012 0 019.826-10.7A18.7 18.7 0 0178.642.188a17.77 17.77 0 019.322 2.367 15.213 15.213 0 015.867 6.158l-5.833 4.016a10.091 10.091 0 00-1.874-2.771 9.555 9.555 0 00-2.367-1.795 10.6 10.6 0 00-2.636-.953 12.536 12.536 0 00-2.692-.3 10.207 10.207 0 00-4.98 1.122 10.86 10.86 0 00-3.522 2.995 13.318 13.318 0 00-2.12 4.173 16.006 16.006 0 00-.707 4.655 15.143 15.143 0 00.819 4.969 13.018 13.018 0 002.344 4.206 11.447 11.447 0 003.623 2.917 9.846 9.846 0 004.644 1.122 12 12 0 002.759-.325 10.793 10.793 0 002.715-1.043 10.608 10.608 0 002.311-1.828 8.5 8.5 0 001.75-2.726l6.225 3.578a11.8 11.8 0 01-2.669 3.87 17.235 17.235 0 01-3.9 2.838 20.554 20.554 0 01-4.655 1.761 20.308 20.308 0 01-4.834.606 16.723 16.723 0 01-7.616-1.761 19.911 19.911 0 01-5.968-4.6 21.545 21.545 0 01-3.901-6.401 20.193 20.193 0 01-1.353-7.378zm65.922-.292a14.584 14.584 0 00-3.006-4.767 14.335 14.335 0 00-4.722-3.264 15.636 15.636 0 00-6.3-1.212 15.829 15.829 0 00-6.326 1.212 14.055 14.055 0 00-7.751 8.054 16.016 16.016 0 000 11.374 14.055 14.055 0 007.751 8.031 16.977 16.977 0 0012.653-.022 14.037 14.037 0 004.733-3.264 14.923 14.923 0 002.973-4.767 16.016 16.016 0 00-.005-11.375zm-7.111 9.2a8.423 8.423 0 01-1.6 2.748 6.966 6.966 0 01-5.317 2.423 7.045 7.045 0 01-2.961-.628 7.219 7.219 0 01-2.4-1.795 8.459 8.459 0 01-1.593-2.715 11.274 11.274 0 01-.045-6.955 8.561 8.561 0 011.593-2.759 7.562 7.562 0 012.4-1.806 6.586 6.586 0 012.961-.662 7.011 7.011 0 015.362 2.412 8.583 8.583 0 011.6 2.759 10.1 10.1 0 01.572 3.466 10.294 10.294 0 01-.572 3.51zm9.725-17.927h7.37v28.817h-7.37zm35.928 28.817h-7.37V23.294a8.39 8.39 0 00-1.211-5.059 3.981 3.981 0 00-3.365-1.6 6.066 6.066 0 00-2.243.449 8.236 8.236 0 00-2.176 1.234 9.853 9.853 0 00-1.84 1.9 7.445 7.445 0 00-1.211 2.423v16.826h-7.37V10.65h6.652v5.339a10.926 10.926 0 014.622-4.3 14.884 14.884 0 016.82-1.537 8.647 8.647 0 014.4.987 7.134 7.134 0 012.636 2.591 10.787 10.787 0 011.3 3.623 24.117 24.117 0 01.359 4.128z"/><path class="a" d="M260 .411h-11.554l-7.089 12.339-7.1-12.339h-11.6l2.139 3.249a15.323 15.323 0 00-1.813-1.151 19.642 19.642 0 00-9.815-2.344 19.876 19.876 0 00-8.413 1.7 20.186 20.186 0 00-6.27 4.487 19.485 19.485 0 00-1.424 1.724 17.225 17.225 0 00-7.741-6.133 22.063 22.063 0 00-8.525-1.537h-15.02v39.047h15.042a22.366 22.366 0 008.087-1.4 17.946 17.946 0 006.214-3.96 17.456 17.456 0 002.123-2.6 20.892 20.892 0 001.546 1.916 20.258 20.258 0 006.214 4.588 18.133 18.133 0 007.953 1.739 22.433 22.433 0 005.081-.606 21.947 21.947 0 004.9-1.761 17.508 17.508 0 002.568-1.6l-2.412 3.685h11.6l6.663-11.767 6.651 11.767h11.542l-12.585-19.249zm-71.026 23.533a9.38 9.38 0 01-1.705 3.253 7.956 7.956 0 01-2.726 2.142 8.691 8.691 0 01-3.735.774h-4.285V9.755h4.285a8.87 8.87 0 013.679.752 7.662 7.662 0 012.782 2.064 9.178 9.178 0 011.728 3.186 13.713 13.713 0 01.594 4.128 13.827 13.827 0 01-.618 4.06zm40.107 6.367l-8.15-4.875a6.833 6.833 0 01-1.346 2.243 7.743 7.743 0 01-1.93 1.492 8.3 8.3 0 01-2.243.819 10.594 10.594 0 01-2.243.247 8.089 8.089 0 01-3.758-.852 8.528 8.528 0 01-2.838-2.244 10.1 10.1 0 01-1.761-3.3 12.581 12.581 0 01-.606-3.9 13.473 13.473 0 01.527-3.668 10.226 10.226 0 011.593-3.3 8.29 8.29 0 012.748-2.367 8.39 8.39 0 013.993-.9 12.473 12.473 0 012.244.213 8.607 8.607 0 012.243.774 7.686 7.686 0 011.975 1.458 7.009 7.009 0 011.458 2.367l7.462-5.315 7.243 11z"/><path class="d" d="M127.927.417h7.37v7.37h-7.37z"/></svg>